<svg width="230" height="40" viewBox="0 0 230 40" fill="none" xmlns="http://www.w3.org/2000/svg">
<path fill-rule="evenodd" clip-rule="evenodd" d="M26.4207 15.627H23.6606V27.0929C23.6606 28.664 23.7279 29.2991 26.1177 29.2991C29.4835 29.2991 30.0557 28.1627 30.0557 22.5132C30.0557 18.0005 28.8775 15.627 26.4207 15.627ZM26.5216 3.42578H23.6606V15.0922H26.5551C28.8105 15.0922 29.1132 13.287 29.1132 9.00824C29.1132 4.76292 28.0699 3.42578 26.5216 3.42578ZM29.4496 29.7673H11.6789V29.2991H13.7656C14.9774 29.2991 15.9196 28.2963 15.9196 27.0595V6.06652C15.9196 4.22788 15.4822 3.3254 11.6789 3.3254C5.95725 3.3254 1.98572 6.43433 1.98572 11.1476C1.98572 15.2928 4.50986 17.2315 7.13522 17.2315C8.68351 17.2315 9.59227 16.6968 9.59227 16.2955C9.59227 16.0617 9.28925 16.1284 8.98623 16.1284C6.59648 16.1284 5.41851 14.4905 5.41851 12.8525C5.41851 11.1811 6.66389 9.50958 9.25565 9.50958C11.1067 9.50958 12.9578 10.7799 12.9578 12.9862C12.9578 15.2258 10.8375 17.6662 7.37083 17.6662C2.72616 17.6662 0 14.3233 0 10.7799C0 6.83531 2.96177 2.79053 9.82757 2.79053C12.4867 2.79053 13.5973 2.99107 15.4822 2.99107H27.4638C32.6471 2.99107 37.09 5.13047 37.09 9.14198C37.09 12.3176 34.0607 14.5239 30.3584 15.2258L30.3922 15.4598C34.8686 16.0617 39.1093 18.6355 39.1093 22.7138C39.1093 26.7588 35.5752 29.7673 29.4496 29.7673Z" fill="#020303"/>
<path fill-rule="evenodd" clip-rule="evenodd" d="M91.2548 22.2994C91.2548 26.0333 89.1655 29.7672 83.9081 29.7672C78.0446 29.7672 73.5625 25.9684 73.5625 20.4163C73.5625 15.3512 78.1456 11.1626 84.38 11.1626C88.4577 11.1626 91.0189 13.7601 91.0189 16.4226C91.0189 18.8577 89.1991 20.2539 87.1097 20.2539C84.7509 20.2539 83.032 18.6304 83.032 16.7147C83.032 14.8316 84.5485 13.2407 86.7053 13.2407C87.6491 13.2407 88.1881 13.5653 88.2891 13.5653C88.3902 13.5653 88.3902 13.4355 88.3902 13.3056C88.3902 12.9485 87.1097 11.5197 84.6834 11.5197C82.6276 11.5197 80.9763 13.2731 80.9763 21.0006C80.9763 27.5917 82.2232 29.2801 84.6834 29.2801C88.2556 29.2801 90.8843 26.2281 90.8843 22.2669L91.2548 22.2994Z" fill="#020303"/>
<path fill-rule="evenodd" clip-rule="evenodd" d="M93.5459 4.71499C93.5459 3.80337 93.0741 3.22933 92.131 3.22933H91.2549V2.79053H100.351V19.5371C103.417 15.0466 104.495 13.4934 104.495 13.4934C105.741 11.6702 107.257 10.7249 109.009 10.7249C111.165 10.7249 112.547 12.1429 112.547 14.0336C112.547 15.8906 110.997 17.3763 109.11 17.3763C107.392 17.3763 105.707 16.3296 105.707 14.4388C105.707 13.9999 105.606 13.8986 105.472 13.8986C104.899 13.8986 103.787 15.114 103.787 15.688L111.738 27.9778C112.378 28.9233 113.085 29.2947 113.86 29.2947H114.534V29.7673H104.933L100.351 22.4069V27.7415C100.351 28.6531 100.755 29.3283 101.564 29.3283H102.103V29.7673H91.2549V29.3283H91.8951C92.8718 29.3283 93.5459 28.6531 93.5459 27.7415V4.71499Z" fill="#020303"/>
<path fill-rule="evenodd" clip-rule="evenodd" d="M139.839 30.6976C131.003 30.6976 124.777 24.5858 124.777 16.5829C124.777 8.58008 132.208 1.86035 138.935 1.86035C142.683 1.86035 143.955 4.05535 146.666 4.05535C148.742 4.05535 149.244 2.16436 149.244 2.16436H149.377V15.2998H148.976V14.5569C148.976 12.7335 145.763 2.29952 139.37 2.29952C135.521 2.29952 133.747 8.24246 133.747 17.0556C133.747 25.8351 136.76 30.0222 140.977 30.0222C146.365 30.0222 150.181 26.3416 150.181 22.0194C150.181 20.3311 149.511 19.5206 149.244 19.5206C149.143 19.5206 149.109 19.5883 149.109 19.6557C149.109 19.7908 149.21 20.0271 149.21 20.2298C149.21 22.4584 147.336 23.539 145.428 23.539C143.487 23.539 141.546 22.2895 141.546 19.8245C141.546 17.731 143.453 15.8737 145.93 15.8737C149.009 15.8737 150.85 18.6427 150.85 21.7493C150.85 26.0039 147.67 30.6976 139.839 30.6976Z" fill="#020303"/>
<path fill-rule="evenodd" clip-rule="evenodd" d="M162.99 11.6685C160.935 11.6685 160.558 13.3555 160.558 21.048C160.558 29.1116 161.14 30.1913 162.99 30.1913C164.909 30.1913 165.422 28.6393 165.422 21.1493C165.422 14.6714 165.525 11.6685 162.99 11.6685ZM162.956 30.6975C157.303 30.6975 152.713 26.3114 152.713 20.9132C152.713 15.5487 157.303 11.1626 162.956 11.1626C168.608 11.1626 173.199 15.5487 173.199 20.9132C173.199 26.3114 168.608 30.6975 162.956 30.6975Z" fill="#020303"/>
<path fill-rule="evenodd" clip-rule="evenodd" d="M199.17 9.66427C197.256 9.66427 195.645 8.14893 195.645 6.39785C195.645 4.44487 197.189 2.96314 199.002 2.96314C200.21 2.96314 200.747 3.29983 200.882 3.29983C201.016 3.29983 201.116 3.29983 201.116 3.09782C201.116 2.1551 199.438 0.740811 197.022 0.740811C190.611 0.740811 183.696 12.0552 183.696 19.8001V27.7133C183.696 28.6225 184.099 29.3296 184.905 29.3296H185.878V29.7674H174.13V29.3296H175.137C176.11 29.3296 176.748 28.6562 176.748 27.7133V13.4694C176.748 12.5602 176.278 11.9878 175.372 11.9878H174.466V11.5836H183.696V14.7826C184.972 8.88974 187.959 0 195.948 0C200.378 0 202.996 2.76113 202.996 5.58981C202.996 7.81224 201.049 9.66427 199.17 9.66427Z" fill="#020303"/>
<path fill-rule="evenodd" clip-rule="evenodd" d="M197.875 18.2454C197.806 18.2454 197.323 18.8329 196.597 19.3553C195.975 19.8121 194.352 20.3997 194.352 24.7735C194.352 28.4942 194.49 28.8208 195.354 28.8208C196.424 28.8208 197.979 26.2096 197.979 24.0227V18.4412V18.4086C197.979 18.3108 197.979 18.2454 197.875 18.2454ZM207.652 24.5776C207.652 27.7764 206.961 29.7672 203.299 29.7672C198.843 29.7672 198.152 26.2096 198.048 26.2096C197.91 26.2096 197.703 27.0909 197.081 27.9395C196.459 28.8208 195.664 29.6694 193.177 29.6694C189.55 29.6694 187.166 27.7764 187.166 25.002C187.166 20.6934 191.865 20.4976 193.764 20.0407C195.664 19.5838 198.117 19.094 198.117 15.0141C198.117 12.0766 197.115 11.5216 195.526 11.5216C193.937 11.5216 192.21 12.3703 192.21 12.8599C192.21 13.023 192.279 13.0557 192.348 13.0557C192.451 13.0557 192.59 13.023 192.728 13.023C194.455 13.023 195.734 14.3941 195.734 15.9606C195.734 17.8212 194.11 19.3879 192.21 19.3879C190.344 19.3879 188.582 18.0496 188.582 15.8954C188.582 13.4801 191.173 11.1626 196.805 11.1626C201.572 11.1626 204.854 12.9252 204.854 16.4177V27.6131C204.854 28.4618 205.165 28.7882 205.579 28.7882C206.305 28.7882 207.203 27.2866 207.203 25.0344V24.5776H207.652Z" fill="#020303"/>
<mask id="mask0" mask-type="alpha" maskUnits="userSpaceOnUse" x="208" y="2" width="22" height="38">
<path fill-rule="evenodd" clip-rule="evenodd" d="M208.684 2.87842H229.928V40H208.684V2.87842Z" fill="white"/>
</mask>
<g mask="url(#mask0)">
<path fill-rule="evenodd" clip-rule="evenodd" d="M222.77 40C215.018 40 210.927 35.7489 210.927 28.4519V4.78634C210.927 3.88256 210.465 3.31355 209.541 3.31355H208.684V2.87842H217.755V29.891C217.755 36.8869 220.131 39.4979 223.793 39.4979C225.376 39.4979 226.894 38.5606 226.894 37.9247C226.894 37.7239 226.729 37.7572 226.432 37.7572C224.585 37.7572 223.067 36.4184 223.067 34.6108C223.067 32.569 224.716 31.163 226.531 31.163C228.444 31.163 229.928 32.8033 229.928 34.6108C229.928 37.3221 227.191 40 222.77 40Z" fill="#020303"/>
</g>
<path fill-rule="evenodd" clip-rule="evenodd" d="M51.2146 29.7673H39.1094V29.3283H40.141C41.1383 29.3283 41.7917 28.6531 41.7917 27.7414V4.71499C41.7917 3.80337 41.3103 3.22933 40.3818 3.22933H39.4532V2.79053H48.9793V27.7414C48.9793 28.6531 49.392 29.3283 50.2172 29.3283H51.2146V29.7673Z" fill="#020303"/>
<path fill-rule="evenodd" clip-rule="evenodd" d="M62.8546 18.2454C62.7856 18.2454 62.3018 18.8329 61.5764 19.3552C60.9547 19.812 59.331 20.3997 59.331 24.7734C59.331 28.4943 59.4693 28.8207 60.3328 28.8207C61.4037 28.8207 62.9584 26.2096 62.9584 24.0227V18.4412V18.4086C62.9584 18.3107 62.9584 18.2454 62.8546 18.2454ZM72.6313 24.5776C72.6313 27.7764 71.9404 29.7672 68.2785 29.7672C63.8221 29.7672 63.1311 26.2096 63.0276 26.2096C62.8893 26.2096 62.682 27.0909 62.0603 27.9395C61.4384 28.8208 60.6438 29.6694 58.1565 29.6694C54.5292 29.6694 52.1455 27.7764 52.1455 25.002C52.1455 20.6934 56.8437 20.4976 58.7438 20.0407C60.6438 19.5838 63.0966 19.094 63.0966 15.0141C63.0966 12.0766 62.0948 11.5216 60.5056 11.5216C58.9165 11.5216 57.1891 12.3703 57.1891 12.8599C57.1891 13.023 57.2583 13.0557 57.3273 13.0557C57.4311 13.0557 57.5692 13.023 57.7073 13.023C59.4347 13.023 60.7129 14.3941 60.7129 15.9607C60.7129 17.8212 59.0893 19.3879 57.1891 19.3879C55.3236 19.3879 53.5618 18.0496 53.5618 15.8954C53.5618 13.4801 56.1528 11.1626 61.7838 11.1626C66.5512 11.1626 69.8333 12.9252 69.8333 16.4177V27.6131C69.8333 28.4618 70.1441 28.7882 70.5587 28.7882C71.2842 28.7882 72.1823 27.2866 72.1823 25.0344V24.5776H72.6313Z" fill="#020303"/>
</svg>
